# xmcd CD database file
#
# Track frame offsets:
#	150
#	11662
#	21845
#	32429
#	43567
#	56587
#	67313
#	77764
#	90491
#	100906
#	112168
#	123585
#	135230
#	146338
#	157456
#	168741
#	181814
#	192223
#
# Disc length: 2711 seconds
#
# Revision: 0
# Processed by: cddbd v1.5.2PL0 Copyright (c) Steve Scherf et al.
# Submitted via: CDex 1.51
#
DISCID=f80a9512
DTITLE=Patsy Cline - Walking after midnight CD 1
DYEAR=2005
DGENRE=Country
TTITLE0=walking after midnight
TTITLE1=three cigarettes in an ashtray
TTITLE2=lovesick blues
TTITLE3=a stranger in my arms
TTITLE4=life's railway to heaven
TTITLE5=honky tonk merry-go-round
TTITLE6=i love you, honey
TTITLE7=just a closer walk with thee
TTITLE8=he will do for you what he has done for me
TTITLE9=hungry for love
TTITLE10=crazy dreams
TTITLE11=in care of the blues
TTITLE12=don't ever leave me again
TTITLE13=Ican't forget
TTITLE14=cry not for me
TTITLE15=if I could see the world (through the eyes of a child)
TTITLE16=how can i face tomorrow
TTITLE17=hidin' out
EXTD=YEAR: 2005
EXTT0=
EXTT1=
EXTT2=
EXTT3=
EXTT4=
EXTT5=
EXTT6=
EXTT7=
EXTT8=
EXTT9=
EXTT10=
EXTT11=
EXTT12=
EXTT13=
EXTT14=
EXTT15=
EXTT16=
EXTT17=
PLAYORDER=
